<svg width="20" height="12" viewBox="0 0 20 12" fill="none" xmlns="http://www.w3.org/2000/svg">
<path d="M1 6.81104C4.6 -1.18896 15.4 -1.18896 19 6.81104" stroke="#2E2E38" stroke-width="1.5" stroke-linecap="round" stroke-linejoin="round"/>
<path d="M10 10.811C9.60603 10.811 9.21593 10.7334 8.85195 10.5827C8.48797 10.4319 8.15726 10.2109 7.87868 9.93236C7.6001 9.65378 7.37913 9.32306 7.22836 8.95909C7.0776 8.59511 7 8.205 7 7.81104C7 7.41707 7.0776 7.02696 7.22836 6.66298C7.37913 6.29901 7.6001 5.96829 7.87868 5.68971C8.15726 5.41114 8.48797 5.19016 8.85195 5.0394C9.21593 4.88863 9.60603 4.81104 10 4.81104C10.7956 4.81104 11.5587 5.12711 12.1213 5.68971C12.6839 6.25232 13 7.01539 13 7.81104C13 8.60668 12.6839 9.36975 12.1213 9.93236C11.5587 10.495 10.7956 10.811 10 10.811Z" fill="#2E2E38" stroke="#2E2E38" stroke-width="1.5" stroke-linecap="round" stroke-linejoin="round"/>
</svg>
